<?xml version="1.0" encoding="utf-8"?>
<!-- Generator: Adobe Illustrator 25.2.3, SVG Export Plug-In . SVG Version: 6.00 Build 0)  -->
<svg version="1.1" id="圖層_1" xmlns="http://www.w3.org/2000/svg" xmlns:xlink="http://www.w3.org/1999/xlink" x="0px" y="0px"
	 viewBox="0 0 50 50" style="enable-background:new 0 0 50 50;" xml:space="preserve">
<style type="text/css">
	.st0{fill:#FFFFFF;}
</style>
<path class="st0" d="M46.6,24.4c-1.4-1.4-2.6-2.7-3.9-3.9c-0.4-0.4-0.8-0.8-0.2-1.2s0.9,0.1,1.1,0.3c1.6,1.5,3.1,3.1,4.7,4.7
	c0.5,0.5,0.6,1,0,1.5c-1.6,1.6-3.2,3.2-4.8,4.7c-0.2,0.2-0.8,0.8-1.1,0.2c-0.4-0.5,0.1-0.8,0.3-1.1c1.2-1.3,2.5-2.5,3.7-4
	c-0.4,0-0.8,0-1.2,0c-14.1,0-28.2,0-42.4,0c-0.6,0-1.5,0.3-1.5-0.6c0-1,0.9-0.6,1.5-0.6c14.2,0,28.3,0,42.5,0
	C45.6,24.4,46,24.4,46.6,24.4z"/>
</svg>
