<?xml version="1.0" encoding="utf-8"?>
<!-- Generator: Adobe Illustrator 25.2.3, SVG Export Plug-In . SVG Version: 6.00 Build 0)  -->
<svg version="1.1" id="圖層_1" xmlns="http://www.w3.org/2000/svg" xmlns:xlink="http://www.w3.org/1999/xlink" x="0px" y="0px"
	 viewBox="0 0 32 32" style="enable-background:new 0 0 32 32;" xml:space="preserve">
<g>
	<path d="M15.9,30.9c-3.6,0-7.2,0-10.8,0c-2,0-3-0.9-3-3c0-4.6,0-9.3,0-13.9c0-1.9,1-2.9,2.9-2.9c1.5,0,3,0,4.5,0
		c0.3,0,0.7,0.2,0.9,0.5c0.3,0.4-0.1,0.8-0.8,0.8c-1.5,0-3,0-4.5,0c-1.3,0-1.7,0.3-1.7,1.7c0,4.6,0,9.2,0,13.9
		c0,1.2,0.4,1.6,1.6,1.6c7.3,0,14.6,0,21.9,0c1.2,0,1.6-0.4,1.6-1.6c0-4.6,0-9.3,0-13.9c0-1.2-0.4-1.6-1.6-1.6c-1.7,0-3.3,0-5,0
		c-0.2,0-0.5,0.1-0.6,0c-0.3-0.1-0.6-0.4-0.6-0.6c0-0.3,0.3-0.6,0.6-0.7c0.3-0.1,0.7,0,1,0c1.6,0,3.1,0,4.7,0c1.8,0,2.9,1.1,2.9,2.9
		c0,4.7,0,9.4,0,14.2c0,1.8-1,2.8-2.8,2.8C23.4,30.9,19.7,30.9,15.9,30.9z"/>
	<path d="M15.3,21.5c0-0.5,0-0.7,0-1c0-6,0-11.9,0-17.9c0-0.1,0-0.3,0-0.4c0-0.5,0-1,0.7-1c0.6,0,0.7,0.5,0.7,1c0,6.1,0,12.2,0,18.4
		c0,0.3,0,0.6,0,1c0.9-0.7,1.8-1.3,2.6-1.9c0.8-0.6,1.7-1.3,2.5-1.9c0.4-0.3,0.7-0.4,1.1,0c0.3,0.4,0.1,0.8-0.3,1c-2,1.5-4,3-6,4.6
		c-0.4,0.3-0.7,0.3-1.1,0c-2-1.5-4-3.1-6-4.6c-0.4-0.3-0.6-0.6-0.3-1c0.3-0.5,0.7-0.3,1.1,0c1.4,1.1,2.8,2.2,4.3,3.2
		C14.7,21.1,15,21.2,15.3,21.5z"/>
</g>
</svg>
