<?xml version="1.0" encoding="utf-8"?>
<!-- Generator: Adobe Illustrator 27.8.1, SVG Export Plug-In . SVG Version: 6.00 Build 0)  -->
<svg version="1.1" id="圖層_1" xmlns="http://www.w3.org/2000/svg" xmlns:xlink="http://www.w3.org/1999/xlink" x="0px" y="0px"
	 viewBox="0 0 32 18" style="enable-background:new 0 0 32 18;" xml:space="preserve">
<style type="text/css">
	.st0{fill:#C8004F;}
	.st1{fill:#FFFFFF;}
</style>
<g>
	<path class="st0" d="M26.6,18H5.4c-3,0-5.4-2.4-5.4-5.4V5.4C0,2.4,2.4,0,5.4,0h21.3c3,0,5.4,2.4,5.4,5.4v7.3
		C32,15.6,29.6,18,26.6,18z"/>
	<g>
		<path class="st1" d="M4.9,5.1h1.4l3.3,5.1V5.1h1.5v7.8H9.7L6.4,7.8v5.1H4.9V5.1z"/>
		<path class="st1" d="M12.9,5.1h4.2v1.4h-2.8V8h2.8v1.4h-2.8v2h2.8v1.4h-4.2C12.9,12.8,12.9,5.1,12.9,5.1z"/>
		<path class="st1" d="M17.9,5.1h1.5l1.1,4.9l1.4-4.9h1.2l1.4,4.9l1.1-4.9h1.5l-1.7,7.8H24l-1.4-5l-1.4,5h-1.4L17.9,5.1z"/>
	</g>
</g>
</svg>
